<svg xmlns="http://www.w3.org/2000/svg" version="1.1" xmlns:xlink="http://www.w3.org/1999/xlink" width="39" height="39"><svg width="39" height="39" viewBox="0 0 39 39" fill="none" xmlns="http://www.w3.org/2000/svg">
<circle cx="19.5" cy="19.5" r="19.5" fill="#121212"></circle>
<path d="M33.5403 19.1719C33.5881 19.9406 33.4778 20.6 33.2095 21.15C32.9476 21.6996 32.5705 22.156 32.0781 22.5191C31.5921 22.8819 31.0332 23.1582 30.4013 23.3481C29.7695 23.538 29.1073 23.6545 28.4148 23.6975C27.8826 23.7306 27.3567 23.71 26.8371 23.6357L26.8972 24.6013C26.9158 24.9013 27.0062 25.1121 27.1682 25.2338C27.3303 25.3555 27.5166 25.4537 27.7273 25.5284C27.9375 25.5969 28.1242 25.7014 28.2874 25.8418C28.4507 25.9822 28.5426 26.2181 28.5632 26.5493C28.5853 26.9056 28.4957 27.1715 28.2942 27.3472C28.0991 27.5224 27.8284 27.6208 27.4822 27.6424L22.2114 27.9703C21.8716 27.9914 21.5908 27.9273 21.3691 27.778C21.147 27.6224 21.0251 27.3696 21.0033 27.0196C20.9835 26.7008 21.0328 26.4593 21.1513 26.2951C21.2695 26.1246 21.412 25.984 21.5789 25.8733C21.7458 25.7625 21.8893 25.6375 22.0094 25.4983C22.1295 25.359 22.1813 25.1582 22.165 24.8957L21.7393 18.052C21.7226 17.7832 21.646 17.5872 21.5096 17.4639C21.3728 17.3344 21.2147 17.225 21.0354 17.1358C20.856 17.0466 20.6974 16.9278 20.5594 16.7796C20.4215 16.6313 20.3428 16.4009 20.3233 16.0884C20.3016 15.7384 20.3914 15.4756 20.5929 15.2999C20.794 15.118 21.0645 15.0165 21.4043 14.9953L26.4058 14.6842C27.2073 14.6344 28.0141 14.6689 28.8261 14.7878C29.6445 14.9063 30.399 15.1354 31.0896 15.4752C31.7798 15.8087 32.3465 16.2785 32.7897 16.8846C33.2329 17.4907 33.4831 18.2532 33.5403 19.1719ZM28.9821 19.3143C28.9382 18.608 28.6881 18.0024 28.2319 17.4975C27.7756 16.9926 27.1684 16.7512 26.4102 16.7732L26.7309 21.9295C26.8019 21.9313 26.8726 21.9301 26.9431 21.9257C27.6869 21.8794 28.223 21.5982 28.5514 21.0821C28.8798 20.5661 29.0233 19.9768 28.9821 19.3143Z" fill="#FEFCF2"></path>
<path d="M6.66556 11.716C6.67326 11.3501 6.78798 11.086 7.00972 10.9237C7.23147 10.7615 7.51243 10.6839 7.85261 10.6911L14.2936 10.8266C14.4541 10.83 14.6887 10.8189 14.9974 10.7933C15.3062 10.7677 15.5319 10.7243 15.6744 10.6631C15.822 10.6662 15.9637 10.6499 16.0993 10.6142C16.2414 10.5723 16.3831 10.5528 16.5243 10.5557C16.9672 10.5651 17.292 10.6907 17.4988 10.9326C17.7121 11.1747 17.8664 11.4701 17.9618 11.8189C18.0573 12.1612 18.1497 12.5003 18.239 12.8361C18.3046 13.0751 18.3795 13.3303 18.4636 13.6018C18.5542 13.8734 18.5968 14.1375 18.5914 14.3943C18.5851 14.6959 18.4551 14.9212 18.2016 15.0699C17.9544 15.2189 17.6961 15.2905 17.4265 15.2848C17.1505 15.279 16.9401 15.2071 16.7953 15.0692C16.6569 14.9315 16.5259 14.7489 16.4023 14.5216C16.1986 14.132 16.0188 13.8264 15.8629 13.6048C15.7135 13.3833 15.5177 13.2251 15.2757 13.1301C15.0401 13.0352 14.6849 12.9828 14.2099 12.9728L12.7465 12.942L12.6721 16.4754L13.4327 16.4914C13.7408 16.4979 13.9574 16.4254 14.0826 16.2739C14.2078 16.1225 14.3014 15.9446 14.3635 15.7404C14.432 15.5364 14.5289 15.3586 14.6541 15.2072C14.7857 15.0558 15.0088 14.9835 15.3233 14.9901C15.5864 14.9956 15.7935 15.0738 15.9444 15.2247C16.1018 15.3757 16.2068 15.5738 16.2594 15.8189L16.7952 18.2767C16.8067 18.3412 16.818 18.412 16.8293 18.4893C16.8406 18.5602 16.8455 18.6309 16.8441 18.7015C16.8381 18.984 16.737 19.2098 16.5408 19.379C16.3446 19.5483 16.1085 19.63 15.8325 19.6242C15.64 19.6201 15.4773 19.5686 15.3446 19.4694C15.2184 19.364 15.0957 19.2427 14.9766 19.1053C14.7949 18.8896 14.6472 18.7356 14.5336 18.6433C14.4264 18.5511 14.3024 18.4939 14.1616 18.4717C14.0208 18.4495 13.8124 18.4355 13.5364 18.4296L12.6314 18.4106L12.5902 20.365C12.5798 20.8593 12.7096 21.2537 12.9795 21.5483C13.2494 21.843 13.6347 21.9956 14.1353 22.0061C14.6488 22.0169 15.0445 21.9803 15.3224 21.8962C15.6067 21.8123 15.8411 21.6567 16.0257 21.4294C16.2168 21.1959 16.4325 20.8633 16.6728 20.4317C16.7995 20.2096 16.9349 20.0295 17.0791 19.8912C17.2233 19.753 17.4334 19.6868 17.7093 19.6926C18.011 19.6989 18.2722 19.7976 18.4929 19.9884C18.7202 20.173 18.8305 20.4258 18.8237 20.7467C18.8212 20.8686 18.7957 21.0094 18.7474 21.1689L18.1683 23.0542C18.0373 23.4817 17.8692 23.8409 17.6641 24.132C17.459 24.4167 17.1029 24.5536 16.5959 24.543C16.3969 24.5388 16.2017 24.509 16.0102 24.4536C15.8186 24.4046 15.6302 24.3557 15.445 24.3068C15.1066 24.2162 14.748 24.1669 14.3693 24.159L7.57212 24.0159C7.23194 24.0087 6.95449 23.9194 6.73978 23.7479C6.52506 23.5765 6.42155 23.3078 6.42925 22.9419C6.43628 22.6082 6.50887 22.3625 6.64704 22.2049C6.79163 22.0474 6.95479 21.9224 7.13654 21.8299C7.31842 21.731 7.47817 21.6155 7.6158 21.4836C7.75984 21.3518 7.83477 21.1479 7.84058 20.8719L7.98852 13.8436C7.99433 13.5676 7.92805 13.3607 7.78968 13.223C7.65773 13.0853 7.50291 12.9665 7.32522 12.8664C7.14766 12.7599 6.98997 12.625 6.85214 12.4616C6.72072 12.2983 6.65853 12.0497 6.66556 11.716Z" fill="#FEFCF2"></path>
</svg><style>@media (prefers-color-scheme: light) { :root { filter: none; } }
@media (prefers-color-scheme: dark) { :root { filter: none; } }
</style></svg>